<mxfile host="app.diagrams.net" agent="Mozilla/5.0 (Windows NT 10.0; Win64; x64) AppleWebKit/537.36 (KHTML, like Gecko) Chrome/118.0.0.0 Safari/537.36" version="28.0.7">
  <diagram name="第 1 页" id="rlAudVQ4h7Or6-Ryqs-e">
    <mxGraphModel dx="1788" dy="868" grid="1" gridSize="10" guides="1" tooltips="1" connect="1" arrows="1" fold="1" page="1" pageScale="1" pageWidth="827" pageHeight="1169" math="0" shadow="0">
      <root>
        <mxCell id="0" />
        <mxCell id="1" parent="0" />
        <mxCell id="WnlR4y82hD0AbVqCJ0Hk-26" value="" style="group" parent="1" vertex="1" connectable="0">
          <mxGeometry x="64" y="100" width="700" height="230" as="geometry" />
        </mxCell>
        <mxCell id="WnlR4y82hD0AbVqCJ0Hk-10" style="edgeStyle=orthogonalEdgeStyle;rounded=0;orthogonalLoop=1;jettySize=auto;html=1;" parent="WnlR4y82hD0AbVqCJ0Hk-26" source="WnlR4y82hD0AbVqCJ0Hk-3" target="WnlR4y82hD0AbVqCJ0Hk-4" edge="1">
          <mxGeometry relative="1" as="geometry" />
        </mxCell>
        <mxCell id="WnlR4y82hD0AbVqCJ0Hk-3" value="Producers" style="rounded=1;whiteSpace=wrap;html=1;shadow=1;fillColor=#E6FFCC;" parent="WnlR4y82hD0AbVqCJ0Hk-26" vertex="1">
          <mxGeometry y="20" width="120" height="60" as="geometry" />
        </mxCell>
        <mxCell id="WnlR4y82hD0AbVqCJ0Hk-4" value="Broker集群" style="verticalLabelPosition=bottom;verticalAlign=top;html=1;shape=mxgraph.basic.layered_rect;dx=10;outlineConnect=0;whiteSpace=wrap;shadow=1;fillColor=#CCFFFF;" parent="WnlR4y82hD0AbVqCJ0Hk-26" vertex="1">
          <mxGeometry x="220" y="20" width="100" height="60" as="geometry" />
        </mxCell>
        <mxCell id="WnlR4y82hD0AbVqCJ0Hk-5" value="" style="shape=actor;whiteSpace=wrap;html=1;fillColor=#FFE6CC;" parent="WnlR4y82hD0AbVqCJ0Hk-26" vertex="1">
          <mxGeometry x="420" y="20" width="40" height="60" as="geometry" />
        </mxCell>
        <mxCell id="WnlR4y82hD0AbVqCJ0Hk-21" style="edgeStyle=orthogonalEdgeStyle;rounded=0;orthogonalLoop=1;jettySize=auto;html=1;entryX=0;entryY=0.5;entryDx=0;entryDy=0;" parent="WnlR4y82hD0AbVqCJ0Hk-26" source="WnlR4y82hD0AbVqCJ0Hk-6" edge="1">
          <mxGeometry relative="1" as="geometry">
            <mxPoint x="580" y="192.5" as="targetPoint" />
          </mxGeometry>
        </mxCell>
        <mxCell id="WnlR4y82hD0AbVqCJ0Hk-6" value="PageCache" style="shape=tape;whiteSpace=wrap;html=1;strokeWidth=2;size=0.19;shadow=1;fillColor=#CCE5FF;" parent="WnlR4y82hD0AbVqCJ0Hk-26" vertex="1">
          <mxGeometry x="390" y="160" width="100" height="65" as="geometry" />
        </mxCell>
        <mxCell id="WnlR4y82hD0AbVqCJ0Hk-11" value="批量发送" style="text;strokeColor=none;align=center;fillColor=none;html=1;verticalAlign=middle;whiteSpace=wrap;rounded=0;" parent="WnlR4y82hD0AbVqCJ0Hk-26" vertex="1">
          <mxGeometry x="140" y="30" width="50" height="20" as="geometry" />
        </mxCell>
        <mxCell id="WnlR4y82hD0AbVqCJ0Hk-16" value="Consumers" style="text;strokeColor=none;align=center;fillColor=none;html=1;verticalAlign=middle;whiteSpace=wrap;rounded=0;" parent="WnlR4y82hD0AbVqCJ0Hk-26" vertex="1">
          <mxGeometry x="405" y="80" width="70" height="20" as="geometry" />
        </mxCell>
        <mxCell id="WnlR4y82hD0AbVqCJ0Hk-17" value="分区复制" style="text;strokeColor=none;align=center;fillColor=none;html=1;verticalAlign=middle;whiteSpace=wrap;rounded=0;" parent="WnlR4y82hD0AbVqCJ0Hk-26" vertex="1">
          <mxGeometry x="245" width="50" height="20" as="geometry" />
        </mxCell>
        <mxCell id="WnlR4y82hD0AbVqCJ0Hk-19" style="edgeStyle=orthogonalEdgeStyle;rounded=0;orthogonalLoop=1;jettySize=auto;html=1;entryX=0;entryY=0.5;entryDx=0;entryDy=0;entryPerimeter=0;exitX=0;exitY=0;exitDx=100;exitDy=60;exitPerimeter=0;" parent="WnlR4y82hD0AbVqCJ0Hk-26" source="WnlR4y82hD0AbVqCJ0Hk-4" target="WnlR4y82hD0AbVqCJ0Hk-6" edge="1">
          <mxGeometry relative="1" as="geometry">
            <Array as="points">
              <mxPoint x="310" y="80" />
              <mxPoint x="310" y="193" />
            </Array>
          </mxGeometry>
        </mxCell>
        <mxCell id="WnlR4y82hD0AbVqCJ0Hk-20" value="顺序写入" style="text;strokeColor=none;align=center;fillColor=none;html=1;verticalAlign=middle;whiteSpace=wrap;rounded=0;" parent="WnlR4y82hD0AbVqCJ0Hk-26" vertex="1">
          <mxGeometry x="320" y="170" width="50" height="20" as="geometry" />
        </mxCell>
        <mxCell id="WnlR4y82hD0AbVqCJ0Hk-22" value="异步刷盘" style="text;strokeColor=none;align=center;fillColor=none;html=1;verticalAlign=middle;whiteSpace=wrap;rounded=0;" parent="WnlR4y82hD0AbVqCJ0Hk-26" vertex="1">
          <mxGeometry x="510" y="172.5" width="50" height="17.5" as="geometry" />
        </mxCell>
        <mxCell id="WnlR4y82hD0AbVqCJ0Hk-24" value="磁盘" style="shape=process;whiteSpace=wrap;html=1;backgroundOutline=1;shadow=1;fillColor=#CCCCCC;" parent="WnlR4y82hD0AbVqCJ0Hk-26" vertex="1">
          <mxGeometry x="580" y="162.5" width="120" height="60" as="geometry" />
        </mxCell>
        <mxCell id="WnlR4y82hD0AbVqCJ0Hk-25" value="" style="group" parent="WnlR4y82hD0AbVqCJ0Hk-26" vertex="1" connectable="0">
          <mxGeometry x="330" y="20" width="90" height="50" as="geometry" />
        </mxCell>
        <mxCell id="WnlR4y82hD0AbVqCJ0Hk-12" style="edgeStyle=orthogonalEdgeStyle;rounded=0;orthogonalLoop=1;jettySize=auto;html=1;exitX=0;exitY=0;exitDx=100;exitDy=22.5;exitPerimeter=0;" parent="WnlR4y82hD0AbVqCJ0Hk-25" edge="1">
          <mxGeometry relative="1" as="geometry">
            <mxPoint x="90" y="19.80000000000001" as="targetPoint" />
            <mxPoint y="19.69999999999999" as="sourcePoint" />
          </mxGeometry>
        </mxCell>
        <mxCell id="WnlR4y82hD0AbVqCJ0Hk-13" style="edgeStyle=orthogonalEdgeStyle;rounded=0;orthogonalLoop=1;jettySize=auto;html=1;" parent="WnlR4y82hD0AbVqCJ0Hk-25" edge="1">
          <mxGeometry relative="1" as="geometry">
            <mxPoint x="90" y="30" as="sourcePoint" />
            <mxPoint y="30.000000000000057" as="targetPoint" />
            <Array as="points">
              <mxPoint x="40" y="30" />
              <mxPoint x="40" y="30" />
            </Array>
          </mxGeometry>
        </mxCell>
        <mxCell id="WnlR4y82hD0AbVqCJ0Hk-14" value="零拷贝传输" style="text;strokeColor=none;align=center;fillColor=none;html=1;verticalAlign=middle;whiteSpace=wrap;rounded=0;" parent="WnlR4y82hD0AbVqCJ0Hk-25" vertex="1">
          <mxGeometry x="10" width="70" height="20" as="geometry" />
        </mxCell>
        <mxCell id="WnlR4y82hD0AbVqCJ0Hk-15" value="批量拉取" style="text;strokeColor=none;align=center;fillColor=none;html=1;verticalAlign=middle;whiteSpace=wrap;rounded=0;" parent="WnlR4y82hD0AbVqCJ0Hk-25" vertex="1">
          <mxGeometry x="17" y="30" width="56" height="20" as="geometry" />
        </mxCell>
        <mxCell id="WnlR4y82hD0AbVqCJ0Hk-44" value="" style="group" parent="1" vertex="1" connectable="0">
          <mxGeometry x="30" y="430" width="635" height="105" as="geometry" />
        </mxCell>
        <mxCell id="WnlR4y82hD0AbVqCJ0Hk-40" style="edgeStyle=orthogonalEdgeStyle;rounded=0;orthogonalLoop=1;jettySize=auto;html=1;entryX=0;entryY=0.5;entryDx=0;entryDy=0;" parent="WnlR4y82hD0AbVqCJ0Hk-44" source="WnlR4y82hD0AbVqCJ0Hk-30" target="WnlR4y82hD0AbVqCJ0Hk-35" edge="1">
          <mxGeometry relative="1" as="geometry" />
        </mxCell>
        <mxCell id="WnlR4y82hD0AbVqCJ0Hk-30" value="消息缓冲池" style="shape=tape;whiteSpace=wrap;html=1;strokeWidth=2;size=0.19;fillColor=#CCE5FF;shadow=1;" parent="WnlR4y82hD0AbVqCJ0Hk-44" vertex="1">
          <mxGeometry x="5" y="40" width="100" height="65" as="geometry" />
        </mxCell>
        <mxCell id="WnlR4y82hD0AbVqCJ0Hk-41" style="edgeStyle=orthogonalEdgeStyle;rounded=0;orthogonalLoop=1;jettySize=auto;html=1;" parent="WnlR4y82hD0AbVqCJ0Hk-44" source="WnlR4y82hD0AbVqCJ0Hk-35" target="WnlR4y82hD0AbVqCJ0Hk-38" edge="1">
          <mxGeometry relative="1" as="geometry" />
        </mxCell>
        <mxCell id="WnlR4y82hD0AbVqCJ0Hk-35" value="批量压缩" style="shape=hexagon;perimeter=hexagonPerimeter2;whiteSpace=wrap;html=1;fixedSize=1;fillColor=#FFE6CC;shadow=1;" parent="WnlR4y82hD0AbVqCJ0Hk-44" vertex="1">
          <mxGeometry x="185" y="42.5" width="100" height="60" as="geometry" />
        </mxCell>
        <mxCell id="WnlR4y82hD0AbVqCJ0Hk-42" style="edgeStyle=orthogonalEdgeStyle;rounded=0;orthogonalLoop=1;jettySize=auto;html=1;" parent="WnlR4y82hD0AbVqCJ0Hk-44" source="WnlR4y82hD0AbVqCJ0Hk-38" target="WnlR4y82hD0AbVqCJ0Hk-39" edge="1">
          <mxGeometry relative="1" as="geometry" />
        </mxCell>
        <mxCell id="WnlR4y82hD0AbVqCJ0Hk-38" value="按分区分组" style="verticalLabelPosition=bottom;verticalAlign=top;html=1;shape=mxgraph.basic.layered_rect;dx=10;outlineConnect=0;whiteSpace=wrap;fillColor=#CCFFFF;shadow=1;" parent="WnlR4y82hD0AbVqCJ0Hk-44" vertex="1">
          <mxGeometry x="355" y="42.5" width="100" height="60" as="geometry" />
        </mxCell>
        <mxCell id="WnlR4y82hD0AbVqCJ0Hk-39" value="异步发送" style="shape=step;perimeter=stepPerimeter;whiteSpace=wrap;html=1;fixedSize=1;fillColor=#E6FFCC;shadow=1;" parent="WnlR4y82hD0AbVqCJ0Hk-44" vertex="1">
          <mxGeometry x="525" y="42.5" width="110" height="60" as="geometry" />
        </mxCell>
        <mxCell id="WnlR4y82hD0AbVqCJ0Hk-43" value="&lt;b&gt;Producer组件解析&lt;/b&gt;" style="text;strokeColor=none;align=center;fillColor=none;html=1;verticalAlign=middle;whiteSpace=wrap;rounded=0;" parent="WnlR4y82hD0AbVqCJ0Hk-44" vertex="1">
          <mxGeometry width="110" height="20" as="geometry" />
        </mxCell>
        <mxCell id="CIMbJofhmWd3QH-cJI4E-21" value="" style="group" vertex="1" connectable="0" parent="1">
          <mxGeometry x="30" y="730" width="352" height="310" as="geometry" />
        </mxCell>
        <mxCell id="CIMbJofhmWd3QH-cJI4E-14" value="&lt;b&gt;Topic内消费者并行&lt;/b&gt;" style="text;strokeColor=none;align=center;fillColor=none;html=1;verticalAlign=middle;whiteSpace=wrap;rounded=0;" vertex="1" parent="CIMbJofhmWd3QH-cJI4E-21">
          <mxGeometry width="114" height="20" as="geometry" />
        </mxCell>
        <mxCell id="CIMbJofhmWd3QH-cJI4E-20" value="" style="group" vertex="1" connectable="0" parent="CIMbJofhmWd3QH-cJI4E-21">
          <mxGeometry x="7" y="30" width="345" height="280" as="geometry" />
        </mxCell>
        <mxCell id="CIMbJofhmWd3QH-cJI4E-17" style="edgeStyle=orthogonalEdgeStyle;rounded=0;orthogonalLoop=1;jettySize=auto;html=1;" edge="1" parent="CIMbJofhmWd3QH-cJI4E-20">
          <mxGeometry relative="1" as="geometry">
            <mxPoint x="287" y="29.74000000000001" as="targetPoint" />
            <mxPoint x="107" y="29.73999999999978" as="sourcePoint" />
          </mxGeometry>
        </mxCell>
        <mxCell id="CIMbJofhmWd3QH-cJI4E-1" value="Partition1" style="verticalLabelPosition=bottom;verticalAlign=top;html=1;shape=mxgraph.basic.layered_rect;dx=10;outlineConnect=0;whiteSpace=wrap;shadow=1;fillColor=#CCFFFF;" vertex="1" parent="CIMbJofhmWd3QH-cJI4E-20">
          <mxGeometry width="100" height="60" as="geometry" />
        </mxCell>
        <mxCell id="CIMbJofhmWd3QH-cJI4E-2" value="Partition2" style="verticalLabelPosition=bottom;verticalAlign=top;html=1;shape=mxgraph.basic.layered_rect;dx=10;outlineConnect=0;whiteSpace=wrap;fillColor=#CCFFFF;shadow=1;" vertex="1" parent="CIMbJofhmWd3QH-cJI4E-20">
          <mxGeometry y="100" width="100" height="60" as="geometry" />
        </mxCell>
        <mxCell id="CIMbJofhmWd3QH-cJI4E-3" value="Partition3" style="verticalLabelPosition=bottom;verticalAlign=top;html=1;shape=mxgraph.basic.layered_rect;dx=10;outlineConnect=0;whiteSpace=wrap;fillColor=#CCFFFF;shadow=1;" vertex="1" parent="CIMbJofhmWd3QH-cJI4E-20">
          <mxGeometry y="200" width="100" height="60" as="geometry" />
        </mxCell>
        <mxCell id="CIMbJofhmWd3QH-cJI4E-4" value="" style="shape=actor;whiteSpace=wrap;html=1;fillColor=#FFE6CC;" vertex="1" parent="CIMbJofhmWd3QH-cJI4E-20">
          <mxGeometry x="290" width="40" height="60" as="geometry" />
        </mxCell>
        <mxCell id="CIMbJofhmWd3QH-cJI4E-7" value="Consumer1" style="text;strokeColor=none;align=center;fillColor=none;html=1;verticalAlign=middle;whiteSpace=wrap;rounded=0;" vertex="1" parent="CIMbJofhmWd3QH-cJI4E-20">
          <mxGeometry x="275" y="60" width="70" height="20" as="geometry" />
        </mxCell>
        <mxCell id="CIMbJofhmWd3QH-cJI4E-5" value="" style="shape=actor;whiteSpace=wrap;html=1;fillColor=#FFE6CC;" vertex="1" parent="CIMbJofhmWd3QH-cJI4E-20">
          <mxGeometry x="290" y="100" width="40" height="60" as="geometry" />
        </mxCell>
        <mxCell id="CIMbJofhmWd3QH-cJI4E-8" value="Consumer2" style="text;strokeColor=none;align=center;fillColor=none;html=1;verticalAlign=middle;whiteSpace=wrap;rounded=0;" vertex="1" parent="CIMbJofhmWd3QH-cJI4E-20">
          <mxGeometry x="275" y="160" width="70" height="20" as="geometry" />
        </mxCell>
        <mxCell id="CIMbJofhmWd3QH-cJI4E-6" value="" style="shape=actor;whiteSpace=wrap;html=1;fillColor=#FFE6CC;" vertex="1" parent="CIMbJofhmWd3QH-cJI4E-20">
          <mxGeometry x="290" y="200" width="40" height="60" as="geometry" />
        </mxCell>
        <mxCell id="CIMbJofhmWd3QH-cJI4E-9" value="Consumer3" style="text;strokeColor=none;align=center;fillColor=none;html=1;verticalAlign=middle;whiteSpace=wrap;rounded=0;" vertex="1" parent="CIMbJofhmWd3QH-cJI4E-20">
          <mxGeometry x="275" y="260" width="70" height="20" as="geometry" />
        </mxCell>
        <mxCell id="CIMbJofhmWd3QH-cJI4E-18" style="edgeStyle=orthogonalEdgeStyle;rounded=0;orthogonalLoop=1;jettySize=auto;html=1;" edge="1" parent="CIMbJofhmWd3QH-cJI4E-20">
          <mxGeometry relative="1" as="geometry">
            <mxPoint x="287" y="129.76000000000022" as="targetPoint" />
            <mxPoint x="107" y="129.76" as="sourcePoint" />
          </mxGeometry>
        </mxCell>
        <mxCell id="CIMbJofhmWd3QH-cJI4E-19" style="edgeStyle=orthogonalEdgeStyle;rounded=0;orthogonalLoop=1;jettySize=auto;html=1;" edge="1" parent="CIMbJofhmWd3QH-cJI4E-20">
          <mxGeometry relative="1" as="geometry">
            <mxPoint x="287" y="229.76000000000022" as="targetPoint" />
            <mxPoint x="107" y="229.76" as="sourcePoint" />
          </mxGeometry>
        </mxCell>
        <mxCell id="CIMbJofhmWd3QH-cJI4E-22" value="" style="group" vertex="1" connectable="0" parent="1">
          <mxGeometry x="30" y="584.5" width="770" height="100" as="geometry" />
        </mxCell>
        <mxCell id="WnlR4y82hD0AbVqCJ0Hk-60" value="" style="group" parent="CIMbJofhmWd3QH-cJI4E-22" vertex="1" connectable="0">
          <mxGeometry y="20" width="770" height="80" as="geometry" />
        </mxCell>
        <mxCell id="WnlR4y82hD0AbVqCJ0Hk-47" value="网络线程" style="ellipse;shape=cloud;whiteSpace=wrap;html=1;shadow=1;fillColor=#CCFFE6;" parent="WnlR4y82hD0AbVqCJ0Hk-60" vertex="1">
          <mxGeometry width="120" height="80" as="geometry" />
        </mxCell>
        <mxCell id="WnlR4y82hD0AbVqCJ0Hk-48" value="顺序写日志" style="strokeWidth=2;html=1;shape=mxgraph.flowchart.multi-document;whiteSpace=wrap;shadow=1;fillColor=#CCFFFF;" parent="WnlR4y82hD0AbVqCJ0Hk-60" vertex="1">
          <mxGeometry x="299" y="7.5" width="110" height="65" as="geometry" />
        </mxCell>
        <mxCell id="WnlR4y82hD0AbVqCJ0Hk-56" style="edgeStyle=orthogonalEdgeStyle;rounded=0;orthogonalLoop=1;jettySize=auto;html=1;entryX=0;entryY=0.5;entryDx=0;entryDy=0;" parent="WnlR4y82hD0AbVqCJ0Hk-60" source="WnlR4y82hD0AbVqCJ0Hk-49" target="WnlR4y82hD0AbVqCJ0Hk-50" edge="1">
          <mxGeometry relative="1" as="geometry" />
        </mxCell>
        <mxCell id="WnlR4y82hD0AbVqCJ0Hk-49" value="PageCache" style="shape=tape;whiteSpace=wrap;html=1;strokeWidth=2;size=0.19;shadow=1;fillColor=#CCE5FF;" parent="WnlR4y82hD0AbVqCJ0Hk-60" vertex="1">
          <mxGeometry x="460" y="7.5" width="100" height="65" as="geometry" />
        </mxCell>
        <mxCell id="WnlR4y82hD0AbVqCJ0Hk-50" value="磁盘" style="shape=process;whiteSpace=wrap;html=1;backgroundOutline=1;shadow=1;fillColor=#CCCCCC;" parent="WnlR4y82hD0AbVqCJ0Hk-60" vertex="1">
          <mxGeometry x="680" y="11.25" width="90" height="57.5" as="geometry" />
        </mxCell>
        <mxCell id="WnlR4y82hD0AbVqCJ0Hk-52" value="IO线程池" style="verticalLabelPosition=bottom;verticalAlign=top;html=1;shape=mxgraph.basic.polygon;polyCoords=[[0.25,0],[0.75,0],[1,0.25],[1,0.75],[0.75,1],[0.25,1],[0,0.75],[0,0.25]];polyline=0;shadow=1;fillColor=#E6FFCC;" parent="WnlR4y82hD0AbVqCJ0Hk-60" vertex="1">
          <mxGeometry x="170" y="7.5" width="80" height="65" as="geometry" />
        </mxCell>
        <mxCell id="WnlR4y82hD0AbVqCJ0Hk-53" style="edgeStyle=orthogonalEdgeStyle;rounded=0;orthogonalLoop=1;jettySize=auto;html=1;entryX=0;entryY=0.5;entryDx=0;entryDy=0;entryPerimeter=0;exitX=0.917;exitY=0.497;exitDx=0;exitDy=0;exitPerimeter=0;" parent="WnlR4y82hD0AbVqCJ0Hk-60" source="WnlR4y82hD0AbVqCJ0Hk-47" edge="1">
          <mxGeometry relative="1" as="geometry">
            <mxPoint x="120" y="39.799999999999955" as="sourcePoint" />
            <mxPoint x="170" y="39.799999999999955" as="targetPoint" />
          </mxGeometry>
        </mxCell>
        <mxCell id="WnlR4y82hD0AbVqCJ0Hk-54" style="edgeStyle=orthogonalEdgeStyle;rounded=0;orthogonalLoop=1;jettySize=auto;html=1;entryX=0;entryY=0.5;entryDx=0;entryDy=0;entryPerimeter=0;" parent="WnlR4y82hD0AbVqCJ0Hk-60" source="WnlR4y82hD0AbVqCJ0Hk-52" target="WnlR4y82hD0AbVqCJ0Hk-48" edge="1">
          <mxGeometry relative="1" as="geometry" />
        </mxCell>
        <mxCell id="WnlR4y82hD0AbVqCJ0Hk-55" style="edgeStyle=orthogonalEdgeStyle;rounded=0;orthogonalLoop=1;jettySize=auto;html=1;entryX=0;entryY=0.5;entryDx=0;entryDy=0;entryPerimeter=0;" parent="WnlR4y82hD0AbVqCJ0Hk-60" source="WnlR4y82hD0AbVqCJ0Hk-48" target="WnlR4y82hD0AbVqCJ0Hk-49" edge="1">
          <mxGeometry relative="1" as="geometry" />
        </mxCell>
        <mxCell id="WnlR4y82hD0AbVqCJ0Hk-57" value="Linux flush策略" style="text;strokeColor=none;align=center;fillColor=none;html=1;verticalAlign=middle;whiteSpace=wrap;rounded=0;" parent="WnlR4y82hD0AbVqCJ0Hk-60" vertex="1">
          <mxGeometry x="575" y="11.25" width="90" height="20" as="geometry" />
        </mxCell>
        <mxCell id="WnlR4y82hD0AbVqCJ0Hk-59" value="&lt;b&gt;Broker组件设计&lt;/b&gt;" style="text;strokeColor=none;align=center;fillColor=none;html=1;verticalAlign=middle;whiteSpace=wrap;rounded=0;" parent="CIMbJofhmWd3QH-cJI4E-22" vertex="1">
          <mxGeometry width="96" height="20" as="geometry" />
        </mxCell>
      </root>
    </mxGraphModel>
  </diagram>
</mxfile>
